<?xml version="1.0" standalone="no"?>
<!DOCTYPE svg PUBLIC "-//W3C//DTD SVG 20010904//EN"
 "http://www.w3.org/TR/2001/REC-SVG-20010904/DTD/svg10.dtd">
<svg version="1.0" xmlns="http://www.w3.org/2000/svg"
 width="1472.000000pt" height="832.000000pt" viewBox="0 0 1472.000000 832.000000"
 preserveAspectRatio="xMidYMid meet">

<g transform="translate(0.000000,832.000000) scale(0.100000,-0.100000)"
fill="#000000" stroke="none">
<path d="M5283 7992 c-7 -7 -13 -16 -13 -20 0 -4 34 -52 75 -106 l75 -99 0
-101 0 -101 -100 -22 c-191 -41 -372 -142 -497 -277 -119 -129 -208 -352 -220
-551 -19 -326 163 -640 455 -785 168 -83 382 -98 559 -39 110 36 248 142 331
253 l22 29 0 -393 0 -392 144 -199 144 -200 -5 -342 c-10 -719 -50 -4322 -48
-4325 1 -1 211 135 466 303 255 168 467 306 470 307 6 3 258 418 540 887 104
174 105 175 345 430 315 333 403 423 438 450 l30 22 -12 997 c-7 548 -12 1058
-12 1133 l0 136 140 197 140 197 0 380 c0 208 2 379 4 379 2 0 41 -38 87 -83
67 -67 101 -92 169 -125 244 -119 551 -85 770 83 152 117 255 279 301 472 29
122 23 309 -14 433 -52 173 -109 270 -224 382 -141 137 -322 226 -535 262
l-38 7 0 98 0 98 70 93 c68 91 83 126 58 135 -7 2 -933 5 -2057 7 -1697 3
-2047 1 -2058 -10z m4016 -68 c2 -2 -15 -28 -38 -59 l-42 -55 -1873 0 -1874 0
-39 53 c-22 28 -43 58 -47 65 -6 11 348 12 1951 6 1077 -4 1960 -8 1962 -10z
m-99 -234 l0 -50 -1855 0 -1855 0 0 50 0 50 1855 0 1855 0 0 -50z m-3210 -154
c89 -47 215 -89 345 -117 140 -29 388 -32 534 -5 110 20 296 75 399 118 l73
30 52 -21 c71 -29 239 -77 345 -98 109 -22 466 -25 582 -5 113 20 255 60 349
98 l85 34 165 -1 c146 -1 158 -3 96 -10 -184 -24 -520 -123 -755 -224 -320
-137 -561 -184 -937 -185 -363 0 -533 39 -983 223 -207 86 -509 167 -690 186
-64 7 -48 9 100 10 l176 1 64 -34z m1115 9 c-38 -13 -124 -36 -190 -51 -109
-26 -137 -28 -305 -28 -135 1 -205 5 -260 18 -78 17 -260 75 -260 82 0 2 244
4 543 3 l542 -1 -70 -23z m1405 9 c-147 -47 -240 -58 -470 -58 -196 -1 -238 2
-325 21 -233 52 -238 51 325 51 460 0 510 -2 470 -14z m-2715 -89 c244 -52
403 -102 655 -209 192 -81 366 -129 564 -157 131 -18 182 -21 391 -16 367 8
514 40 893 193 237 96 370 139 587 190 105 25 140 28 280 28 189 0 264 -16
412 -89 173 -85 300 -210 372 -367 63 -137 76 -200 76 -378 -1 -141 -3 -161
-27 -228 -66 -182 -202 -341 -364 -424 -125 -63 -215 -82 -358 -75 -75 3 -130
12 -171 26 -159 56 -307 209 -370 381 -75 210 -28 450 119 596 106 105 224
149 385 142 73 -2 97 -8 151 -35 84 -42 162 -119 203 -202 30 -62 32 -72 32
-171 -1 -128 -24 -196 -89 -264 -66 -67 -98 -81 -191 -81 -69 0 -89 4 -138 30
-98 49 -150 125 -150 220 0 91 52 148 145 161 62 9 110 -9 152 -56 38 -42 52
-90 43 -147 -5 -31 -18 -54 -72 -130 -7 -10 -5 -18 9 -29 27 -19 31 -18 62 14
87 90 93 239 13 335 -111 135 -344 101 -405 -58 -24 -65 -16 -169 19 -228 37
-63 118 -132 185 -158 83 -32 208 -31 277 1 141 68 224 231 212 420 -6 104
-34 184 -91 253 -23 29 -56 83 -75 120 -89 183 -284 279 -536 264 -164 -10
-346 -66 -726 -220 -191 -78 -337 -121 -514 -154 -81 -14 -152 -18 -370 -18
-297 0 -324 3 -581 66 -198 48 -322 90 -492 168 -156 72 -236 97 -362 116
-203 31 -393 13 -525 -49 -99 -47 -141 -81 -245 -198 -110 -122 -157 -210
-172 -321 -19 -136 30 -296 119 -385 68 -68 120 -87 233 -87 82 0 103 4 152
27 153 71 234 222 195 359 -18 62 -70 119 -129 144 -51 21 -153 19 -203 -4
-46 -20 -101 -79 -121 -127 -20 -48 -17 -151 5 -199 24 -53 69 -97 95 -93 32
5 31 33 -2 75 -66 83 -64 181 5 249 81 81 224 61 275 -39 26 -53 20 -130 -16
-191 -70 -120 -251 -172 -377 -108 -133 67 -201 262 -150 430 23 76 87 173
143 215 179 137 450 107 623 -67 99 -100 146 -223 146 -386 0 -109 -17 -182
-62 -273 -75 -149 -190 -253 -342 -309 -73 -28 -95 -31 -197 -32 -136 -1 -205
15 -330 75 -70 34 -101 58 -177 134 -79 80 -98 105 -142 196 -65 134 -86 235
-78 374 17 297 159 534 406 672 217 122 430 148 716 88z m3376 -209 c76 -14
143 -42 189 -79 19 -15 20 -18 5 -12 -122 50 -161 59 -275 59 -105 0 -123 -3
-205 -33 -49 -18 -126 -37 -170 -42 -101 -11 -191 -54 -261 -123 -82 -83 -139
-233 -100 -265 35 -29 226 24 320 88 l45 31 -30 -63 c-29 -62 -59 -189 -59
-248 0 -16 -3 -29 -7 -29 -5 0 -43 11 -85 25 -153 49 -263 66 -456 72 -253 8
-457 -23 -653 -98 l-77 -30 -133 45 c-224 74 -331 91 -559 91 -222 -1 -314
-16 -478 -79 -52 -20 -98 -36 -103 -36 -5 0 -9 23 -9 52 0 68 -25 169 -59 239
l-28 55 49 -32 c61 -42 146 -73 229 -87 92 -14 103 -8 97 51 -6 61 -49 147
-105 211 -61 70 -166 121 -260 128 -41 3 -90 14 -124 29 -32 13 -104 32 -160
42 l-104 17 105 3 c213 7 369 -27 585 -126 230 -105 414 -163 665 -209 133
-25 167 -27 410 -27 213 -1 286 3 375 17 187 32 339 76 533 153 518 208 684
247 893 210z m-3465 -107 c32 -6 84 -19 115 -30 52 -19 57 -23 66 -62 6 -23
14 -51 18 -61 6 -13 -10 -4 -46 24 -62 49 -150 91 -229 110 -30 7 -64 16 -75
20 -30 13 80 12 151 -1z m3378 -9 c-87 -23 -173 -65 -241 -118 l-50 -40 17 55
c14 46 23 59 52 74 47 24 160 47 233 48 l60 0 -71 -19z m-2990 -89 c60 -26
133 -95 162 -153 29 -57 31 -81 7 -74 -10 2 -43 11 -73 20 -103 29 -206 120
-230 205 l-9 34 49 -6 c28 -3 70 -15 94 -26z m2650 7 c-14 -45 -43 -94 -76
-125 -37 -36 -142 -87 -205 -102 -38 -8 -43 -7 -43 9 0 31 79 139 125 173 58
41 120 66 168 66 35 1 38 -1 31 -21z m-1829 -498 c66 -11 154 -31 195 -44 l75
-24 -350 -1 c-192 -1 -422 -4 -510 -7 -174 -6 -183 -1 -65 37 188 60 439 75
655 39z m1387 -10 c62 -11 140 -28 173 -39 l60 -19 -512 -1 c-282 -1 -513 1
-513 3 0 7 212 55 285 65 135 17 384 13 507 -9z m342 -155 c4 -14 4 -30 1 -35
-4 -6 -490 -10 -1302 -10 -1177 0 -1295 1 -1289 16 3 9 6 22 6 30 0 17 110 18
1551 22 l1027 2 6 -25z m51 -145 c8 -16 15 -32 15 -35 0 -3 -612 -5 -1359 -4
l-1360 1 17 34 16 34 1328 0 1327 0 16 -30z m-2605 -351 l0 -240 33 -14 c62
-25 149 -23 177 5 19 19 20 33 20 255 l0 235 40 0 40 0 0 -226 c0 -128 4 -233
10 -244 19 -36 122 -52 189 -29 l31 11 0 244 0 244 45 0 45 0 0 -241 0 -240
37 -16 c44 -18 152 -14 177 6 14 12 16 45 16 252 l0 239 40 0 40 0 0 -219 c0
-121 4 -231 9 -244 6 -16 23 -29 47 -37 42 -14 138 -8 160 11 11 9 14 55 14
250 l0 239 90 0 90 0 0 -229 c0 -254 -1 -249 66 -271 38 -13 111 -8 144 10 19
10 20 23 20 250 l0 240 45 0 45 0 0 -235 0 -234 33 -17 c43 -23 137 -23 171 0
l26 16 0 235 0 235 40 0 c31 0 40 -4 40 -17 0 -216 10 -445 19 -457 7 -8 34
-19 60 -26 56 -13 127 0 149 28 9 11 12 77 12 244 l0 228 40 0 40 0 0 -229 c0
-255 0 -254 66 -267 47 -9 130 0 149 16 13 10 15 48 15 246 l0 234 30 0 30 0
0 -355 0 -355 -1289 0 c-709 0 -1303 3 -1320 6 l-31 7 0 348 0 349 25 0 25 0
0 -241z m160 22 c0 -213 -1 -220 -21 -226 -11 -4 -31 -4 -45 -1 l-24 6 0 220
0 220 45 0 45 0 0 -219z m310 -2 l0 -220 -42 3 -43 3 -3 218 -2 217 45 0 45 0
0 -221z m320 1 l0 -220 -45 0 -45 0 0 220 0 220 45 0 45 0 0 -220z m320 -1 l0
-220 -47 3 -48 3 -3 218 -2 217 50 0 50 0 0 -221z m408 4 l-3 -218 -24 -3
c-12 -2 -34 -1 -47 2 l-24 6 0 215 0 215 50 0 50 0 -2 -217z m312 3 c0 -141
-4 -217 -11 -221 -6 -4 -26 -4 -45 -1 l-34 7 0 214 0 215 45 0 45 0 0 -214z
m318 -3 l-3 -218 -40 0 -40 0 -3 218 -2 217 45 0 45 0 -2 -217z m312 2 l0
-215 -45 0 -45 0 0 215 0 215 45 0 45 0 0 -215z m60 -622 c-23 -32 -76 -106
-118 -165 l-76 -108 -471 0 c-260 0 -735 3 -1056 7 l-585 6 -105 145 c-57 79
-108 150 -112 158 -7 12 178 14 1278 14 l1286 0 -41 -57z m-1870 -480 c0 -261
-30 -3355 -36 -3732 l-6 -363 -211 -139 c-116 -76 -212 -137 -213 -136 -1 1 5
535 13 1187 l14 1185 23 30 c39 54 48 87 61 252 15 189 21 204 110 273 33 26
68 60 78 78 12 20 29 108 52 269 45 309 50 369 36 419 -16 60 -41 86 -120 128
-105 55 -134 107 -151 275 -13 119 -27 185 -51 233 -19 37 -26 138 -13 172 5
14 33 16 210 16 l204 0 0 -147z m610 -1568 l0 -1704 -47 -106 c-26 -58 -50
-105 -54 -105 -18 0 -51 76 -78 176 -16 60 -36 125 -44 144 -22 55 -7 89 69
156 71 63 94 97 94 143 0 43 -9 61 -32 61 -17 0 -19 -5 -13 -44 l7 -45 -85
-83 c-46 -46 -86 -89 -89 -97 -6 -21 -52 12 -80 57 -25 41 -27 79 -14 277 7
100 6 126 -7 157 -12 27 -22 38 -38 38 -18 0 -20 -4 -14 -22 26 -86 28 -112
17 -206 -25 -197 -15 -239 70 -326 69 -69 89 -108 114 -216 21 -92 43 -145 79
-188 l28 -33 -68 -149 -68 -150 -160 -105 c-89 -57 -162 -103 -164 -102 -1 2
6 878 17 1948 11 1069 20 2008 20 2087 l0 142 270 0 270 0 0 -1705z m610 1403
c0 -167 3 -468 7 -670 l6 -368 -39 -15 c-88 -36 -166 -80 -220 -126 -65 -55
-134 -135 -134 -155 0 -30 38 -12 74 36 37 48 131 127 188 156 28 14 28 14 28
-15 0 -54 -39 -256 -63 -332 -14 -40 -41 -112 -61 -159 -43 -102 -45 -146 -11
-253 32 -100 31 -119 -6 -162 -24 -27 -29 -39 -21 -47 16 -16 54 5 75 42 24
39 21 95 -8 184 -31 95 -31 116 1 191 82 191 103 268 132 469 15 106 19 120
40 127 l22 8 0 -167 c0 -92 3 -351 6 -577 l5 -410 -184 -139 -184 -139 -83
-186 c-46 -102 -89 -197 -96 -211 -11 -21 -13 261 -14 1598 l0 1622 270 0 270
0 0 -302z m440 90 c0 -117 3 -344 7 -503 l6 -291 -40 -12 c-87 -26 -201 -118
-284 -228 l-44 -58 -6 180 c-4 98 -7 392 -8 652 l-1 472 185 0 185 0 0 -212z
m-2060 -169 c22 -212 66 -294 186 -349 80 -36 99 -68 96 -160 -2 -95 -68 -540
-85 -582 -10 -25 -35 -49 -77 -78 -90 -61 -108 -105 -119 -292 -6 -94 -14
-155 -25 -178 -15 -33 -15 -17 -11 250 3 157 8 559 11 893 4 334 8 606 10 604
2 -2 8 -50 14 -108z m2073 -966 c4 -164 8 -424 8 -578 l1 -280 -181 -139
c-100 -76 -184 -136 -187 -133 -2 2 -7 253 -10 558 l-6 554 48 54 c116 130
193 200 250 229 32 17 62 31 65 32 3 0 9 -134 12 -297z"/>
</g>
</svg>
